# Blender v2.56 (sub 0) OBJ File: 'cornellbox.blend'
# www.blender.org
mtllib cornellbox.mtl
o Cube.002
v 8.650131 -0.041472 -2.136179
v 4.567753 -0.041472 2.628086
v -0.196512 -0.041472 -1.454293
v 3.885868 -0.041472 -6.218557
v 8.650131 13.878541 -2.136177
v 4.567750 13.878541 2.628085
v -0.196512 13.878541 -1.454294
v 3.885866 13.878541 -6.218558
vn 0.000000 -1.000000 0.000000
vn 0.000000 1.000000 0.000000
vn 0.759357 0.000000 0.650674
vn -0.650674 -0.000000 0.759357
vn -0.759357 -0.000000 -0.650674
vn 0.650674 0.000000 -0.759357
g Cube.002_Cube.002_whitewall
usemtl whitewall
s off
f 1//1 2//1 3//1
f 1//1 3//1 4//1
f 5//2 8//2 7//2
f 5//2 7//2 6//2
f 1//3 5//3 6//3
f 1//3 6//3 2//3
f 2//4 6//4 7//4
f 2//4 7//4 3//4
f 3//5 7//5 8//5
f 3//5 8//5 4//5
f 5//6 1//6 4//6
f 5//6 4//6 8//6
o Cube.001
v -2.148418 -0.041472 -1.922064
v -2.148418 -0.041472 4.352013
v -8.422495 -0.041472 4.352013
v -8.422493 -0.041472 -1.922065
v -2.148417 6.232605 -1.922062
v -2.148421 6.232605 4.352015
v -8.422496 6.232605 4.352012
v -8.422495 6.232605 -1.922064
vn 1.000000 0.000000 0.000000
vn -0.000000 -0.000000 1.000000
vn -1.000000 -0.000000 -0.000000
vn 0.000000 0.000000 -1.000000
g Cube.001_Cube.001_yellow_box
usemtl yellow_box
s off
f 9//1 10//1 11//1
f 9//1 11//1 12//1
f 13//2 16//2 15//2
f 13//2 15//2 14//2
f 9//7 13//7 14//7
f 9//7 14//7 10//7
f 10//8 14//8 15//8
f 10//8 15//8 11//8
f 11//9 15//9 16//9
f 11//9 16//9 12//9
f 13//10 9//10 12//10
f 13//10 12//10 16//10
o Cube
v 10.029415 -0.028632 -10.029415
v 10.029415 -0.028631 10.029415
v -10.029416 -0.028631 10.029413
v -10.029411 -0.028632 -10.029419
v 10.029421 20.030201 -10.029411
v 10.029409 20.030201 10.029421
v -10.029419 20.030201 10.029411
v -10.029414 20.030201 -10.029416
v -2.306763 -0.028632 -10.029417
v -2.306766 -0.028631 10.029414
v -2.306763 20.030201 -10.029414
v -2.306770 20.030201 10.029415
v 2.319304 -0.028632 -10.029416
v 2.319302 -0.028631 10.029415
v 2.319306 20.030201 -10.029412
v 2.319297 20.030201 10.029417
v 10.029415 -0.028631 2.306766
v -10.029414 -0.028631 2.306763
v 10.029413 20.030201 2.306771
v -10.029417 20.030201 2.306763
v -2.306765 -0.028631 2.306764
v -2.306767 20.030201 2.306766
v 2.319303 -0.028631 2.306765
v 2.319300 20.030201 2.306768
v 10.029415 -0.028631 -2.319302
v -10.029413 -0.028631 -2.319305
v 10.029416 20.030201 -2.319298
v -10.029415 20.030201 -2.319304
v -2.306764 -0.028631 -2.319304
v -2.306766 20.030201 -2.319302
v 2.319303 -0.028631 -2.319303
v 2.319303 20.030201 -2.319300
g Cube_Cube_whitewall
usemtl whitewall
s off
f 20//8 25//8 27//8
f 20//8 27//8 24//8
f 25//8 29//8 31//8
f 25//8 31//8 27//8
f 29//8 17//8 21//8
f 29//8 21//8 31//8
g Cube_Cube_bluewall
usemtl bluewall
f 33//9 18//9 22//9
f 33//9 22//9 35//9
g Cube_Cube_redwall
usemtl redwall
f 19//7 34//7 36//7
f 19//7 36//7 23//7
g Cube_Cube_whitewall
usemtl whitewall
f 34//2 19//2 26//2
f 34//2 26//2 37//2
f 23//1 36//1 38//1
f 23//1 38//1 28//1
f 39//2 30//2 18//2
f 39//2 18//2 33//2
f 37//2 26//2 30//2
f 37//2 30//2 39//2
f 32//1 40//1 35//1
f 32//1 35//1 22//1
f 28//1 38//1 40//1
f 28//1 40//1 32//1
g Cube_Cube_bluewall
usemtl bluewall
f 17//9 41//9 43//9
f 17//9 43//9 21//9
f 41//9 33//9 35//9
f 41//9 35//9 43//9
g Cube_Cube_redwall
usemtl redwall
f 34//7 42//7 44//7
f 34//7 44//7 36//7
f 42//7 20//7 24//7
f 42//7 24//7 44//7
g Cube_Cube_whitewall
usemtl whitewall
f 20//2 42//2 45//2
f 20//2 45//2 25//2
f 42//2 34//2 37//2
f 42//2 37//2 45//2
f 36//1 44//1 46//1
f 36//1 46//1 38//1
f 44//1 24//1 27//1
f 44//1 27//1 46//1
f 41//2 17//2 29//2
f 41//2 29//2 47//2
f 47//2 39//2 33//2
f 47//2 33//2 41//2
f 25//2 45//2 47//2
f 25//2 47//2 29//2
f 45//2 37//2 39//2
f 45//2 39//2 47//2
f 40//1 48//1 43//1
f 40//1 43//1 35//1
f 48//1 31//1 21//1
f 48//1 21//1 43//1
g Cube_Cube_whitelight
usemtl whitelight
f 38//1 46//1 48//1
f 38//1 48//1 40//1
g Cube_Cube_whitewall
usemtl whitewall
f 46//1 27//1 31//1
f 46//1 31//1 48//1
